<?xml version="1.0" standalone="no"?>
<!DOCTYPE svg PUBLIC "-//W3C//DTD SVG 20010904//EN"
 "http://www.w3.org/TR/2001/REC-SVG-20010904/DTD/svg10.dtd">
<svg version="1.0" xmlns="http://www.w3.org/2000/svg"
 width="74.000000pt" height="24.000000pt" viewBox="0 0 74.000000 24.000000"
 preserveAspectRatio="xMidYMid meet">

<g transform="translate(0.000000,24.000000) scale(0.100000,-0.100000)"
fill="#000000" stroke="none">
<path d="M74 221 c-65 -28 -84 -113 -35 -162 27 -27 35 -29 105 -29 76 0 99
12 54 29 -14 5 -17 10 -10 15 21 13 14 92 -10 120 -25 29 -72 40 -104 27z m78
-48 c26 -23 24 -78 -4 -97 -30 -21 -50 -20 -82 5 -29 23 -33 54 -10 87 18 27
69 30 96 5z"/>
<path d="M210 225 c0 -4 24 -49 53 -101 34 -62 58 -94 70 -94 22 0 22 3 -5 49
l-21 38 32 56 c31 54 31 57 12 57 -14 0 -27 -13 -42 -41 l-21 -42 -22 39 c-18
33 -56 59 -56 39z"/>
<path d="M400 210 c0 -18 7 -20 54 -20 42 0 55 -4 60 -17 9 -23 -19 -43 -61
-43 -20 0 -33 -5 -33 -13 0 -22 74 -87 100 -87 23 0 23 1 -10 35 -25 26 -30
35 -17 35 25 0 57 36 57 64 0 38 -43 66 -101 66 -42 0 -49 -3 -49 -20z"/>
<path d="M633 218 c-6 -10 -62 -176 -63 -185 0 -2 8 -3 19 -3 14 0 22 15 36
65 9 36 21 63 25 60 4 -2 15 -32 24 -65 13 -45 21 -60 35 -60 18 0 17 7 -11
92 -16 51 -32 96 -34 100 -8 12 -22 10 -31 -4z"/>
</g>
</svg>
