<?xml version="1.0" standalone="no"?>
<!DOCTYPE svg PUBLIC "-//W3C//DTD SVG 20010904//EN"
 "http://www.w3.org/TR/2001/REC-SVG-20010904/DTD/svg10.dtd">
<svg version="1.0" xmlns="http://www.w3.org/2000/svg"
 width="105.000000pt" height="120.000000pt" viewBox="0 0 105.000000 120.000000"
 preserveAspectRatio="xMidYMid meet">

<g transform="translate(0.000000,120.000000) scale(0.100000,-0.100000)"
fill="#000000" stroke="none">
<path d="M218 1176 c-180 -48 -265 -272 -160 -421 35 -50 102 -101 150 -115
37 -10 412 -15 412 -5 0 3 -11 23 -25 45 -20 32 -31 40 -55 40 -17 0 -30 2
-30 4 0 3 11 26 25 52 21 40 25 60 25 133 0 77 -3 91 -30 138 -62 108 -191
161 -312 129z m168 -111 c30 -18 49 -40 68 -77 31 -61 32 -98 7 -153 -60 -134
-235 -152 -321 -34 -66 92 -39 205 65 270 45 28 127 25 181 -6z"/>
<path d="M574 1174 c3 -8 74 -134 156 -280 l151 -264 50 0 c27 0 49 3 49 8 0
4 -29 58 -65 120 -36 63 -62 119 -58 128 3 8 41 76 84 152 44 75 79 140 79
144 0 10 -81 10 -97 0 -6 -4 -35 -50 -65 -102 -29 -52 -58 -95 -63 -95 -6 1
-34 43 -63 95 -30 52 -59 98 -65 102 -7 4 -32 8 -56 8 -35 0 -42 -3 -37 -16z"/>
<path d="M134 547 c-3 -8 -4 -30 -2 -49 l3 -33 130 -3 c72 -1 140 -7 151 -13
45 -23 51 -90 12 -126 -16 -14 -43 -19 -121 -23 -158 -8 -158 -36 -4 -188
l104 -102 62 0 c33 0 61 4 61 8 0 5 -40 48 -90 96 -49 49 -90 90 -90 92 0 2
14 4 30 4 67 0 137 56 161 127 22 69 -17 164 -83 200 -47 24 -315 33 -324 10z"/>
<path d="M790 547 c-22 -11 -35 -45 -102 -257 -43 -135 -77 -253 -78 -263 0
-15 7 -18 43 -15 l42 3 47 145 c26 80 52 164 58 188 6 23 14 42 18 42 5 0 32
-80 61 -177 29 -98 58 -184 63 -190 15 -18 88 -17 88 1 0 18 -146 479 -160
506 -6 11 -15 20 -20 20 -4 0 -14 2 -22 5 -7 3 -24 -1 -38 -8z"/>
</g>
</svg>
