<svg width="71" height="20" viewBox="0 0 71 20" fill="none" xmlns="http://www.w3.org/2000/svg">
<path d="M52.6531 19.9762C50.965 19.9762 49.4377 19.9762 47.8701 19.9762C47.7496 19.8757 47.6089 19.7551 47.4883 19.6346C45.1571 17.3034 42.8259 14.9722 40.4947 12.6611C40.354 12.5204 40.2334 12.3998 40.1129 12.2591C39.2688 11.1337 39.9521 9.66666 41.0775 9.4255C41.3387 9.36521 41.6201 9.34512 41.9015 9.34512C43.4288 9.34512 44.9561 9.34512 46.5036 9.34512C47.006 9.34512 47.4682 9.26473 47.9103 9.04367C48.7946 8.60154 49.6788 7.47613 49.5382 6.12966C49.3372 4.40136 47.5687 3.73817 47.2471 3.61759C46.8251 3.47691 46.5036 3.45682 46.0414 3.43672C43.0872 3.33624 40.354 3.41662 38.4046 3.43672C38.0429 3.43672 37.7415 3.43672 37.6008 3.43672C37.6008 2.33141 37.5807 1.2261 37.5807 0.120785C39.6707 0.100688 41.3187 0.0604947 42.3637 0.0403982C43.6499 0.000204987 45.5791 -0.0600857 47.9505 0.301653C48.674 0.402136 49.2166 0.522716 49.8396 0.864358C51.166 1.56774 51.8493 2.73334 52.1507 3.25585C54.301 7.01391 52.1507 11.7768 47.85 12.6209C47.428 12.7012 46.9859 12.7213 46.5438 12.7414C46.2624 12.7615 45.9811 12.7414 45.7399 12.7414C45.6193 12.9022 45.7198 12.9826 45.8002 13.063C46.0213 13.3041 46.2624 13.5252 46.4835 13.7463C48.3525 15.6153 50.2214 17.4842 52.1105 19.3532C52.2512 19.5341 52.412 19.6949 52.6531 19.9762Z" fill="#D9D9D9"/>
<path d="M70.7602 19.9358C69.6348 19.9358 68.5093 19.9358 67.3638 19.9358C65.8968 15.2533 64.4096 10.5708 62.9426 5.8883C61.4353 10.5909 59.9281 15.2935 58.441 19.976C57.2754 19.976 56.1098 19.9559 54.9442 19.9559C58.0993 9.74684 60.3099 2.59246 60.5109 1.88908C60.531 1.82879 60.5712 1.62782 60.7119 1.36657C61.154 0.462222 61.8976 0 62.8823 0C63.8871 0 64.6508 0.482319 65.0929 1.42686C65.2537 1.7484 65.314 2.02976 65.3341 2.09004C65.4949 2.83362 67.5246 9.50568 70.7602 19.9358Z" fill="#D9D9D9"/>
<path d="M17.6821 16.6841C18.5261 16.6841 19.2898 16.6841 20.0736 16.6841C20.3549 17.0056 20.5157 17.3874 20.7368 17.7492C20.9578 18.1109 21.1588 18.4727 21.3598 18.8344C21.5607 19.1961 21.8019 19.5378 21.9627 19.9799C17.0189 19.9799 13.2608 19.9799 10.7086 20C9.70373 20 9.28171 19.9799 8.61852 19.8995C4.71978 19.3971 1.24307 16.4429 0.278436 12.3432C-1.04794 6.81664 2.48906 1.20969 8.23668 0.16467C13.6628 -0.820062 18.7271 2.71694 19.8123 7.96215C20.4152 10.8561 19.8123 13.5289 18.084 15.9606C17.9433 16.1615 17.7424 16.3022 17.6821 16.6841ZM16.6973 10.012C16.6572 6.4549 13.8637 3.38012 10.0454 3.36003C6.3677 3.33993 3.33312 6.25394 3.35321 10.0522C3.37331 13.8303 6.3677 16.6841 10.0253 16.664C13.8838 16.6439 16.6572 13.5691 16.6973 10.012Z" fill="#D9D9D9"/>
<path d="M33.7392 19.9398C32.5133 19.9599 31.2874 19.98 30.0414 20.0001C24.9972 10.9768 22.8468 7.29908 21.9023 5.85213C21.621 5.41 20.5357 3.44054 19.0486 0.82798C18.928 0.606917 18.7672 0.405951 18.7271 0.164792C18.7672 0.124599 18.7672 0.104503 18.7873 0.0844061C18.8074 0.0643096 18.8275 0.0643095 18.8476 0.0643095C18.9682 0.0442129 19.0084 0.0241164 19.129 0.044213C19.2697 0.0643095 20.5759 0.0643095 22.5052 0.044213C22.6258 0.285372 22.7464 0.506434 22.8268 0.667207C23.088 1.16962 24.2335 3.11899 26.4441 7.01773C26.5647 7.21869 26.6853 7.41966 26.7858 7.60053C28.7552 4.46546 29.5189 3.13909 29.8606 2.51609C29.961 2.33522 30.3831 1.59165 30.9659 0.586821C31.0664 0.405951 31.1869 0.245179 31.3075 0.044213C32.5334 0.044213 33.7593 0.044213 35.0053 0.044213C35.0254 0.345662 34.8847 0.506434 34.7842 0.667207C33.5985 2.75725 32.3927 4.86739 31.207 6.95744C30.5237 8.14314 29.8606 9.32883 29.1773 10.5145C29.0567 10.7155 28.9562 10.9165 28.8356 11.1375C28.8959 11.4189 29.0768 11.6399 29.1974 11.8811C30.1218 13.5089 30.8051 14.7348 31.0262 15.1167C31.6492 16.0411 32.5133 17.5483 33.7392 19.9398Z" fill="#D9D9D9"/>
</svg>
