<svg width="393" height="340" viewBox="0 0 393 340" fill="none" xmlns="http://www.w3.org/2000/svg">
<g clip-path="url(#clip0_1_9288)">
<rect width="393" height="340" fill="#FCFCFC"/>
<path d="M294.498 217.836C295.354 221.32 295.255 224.97 294.209 228.402C293.163 231.833 291.21 234.919 288.556 237.333C285.038 240.448 280.481 242.248 277.25 245.674C275.251 247.953 273.876 250.71 273.259 253.678C272.642 256.646 272.805 259.724 273.732 262.61C274.712 265.475 276.263 268.112 278.292 270.361C280.32 272.61 282.784 274.423 285.534 275.693C289.278 277.442 293.383 278.281 297.513 278.14C301.644 278 305.682 276.885 309.299 274.885C318.217 269.844 323.409 259.726 324.724 249.562C326.039 239.398 323.974 229.107 321.263 219.22" fill="#263238"/>
<path d="M219.855 248.097C218.375 239.297 218.555 230.297 220.385 221.563C221.159 217.292 222.724 213.203 225 209.507C225.776 208.128 226.955 207.021 228.38 206.334C229.415 205.99 230.525 205.941 231.587 206.192C232.648 206.442 233.619 206.983 234.391 207.753C235.377 208.779 236.133 210.003 236.61 211.344C237.088 212.684 237.275 214.111 237.16 215.529C236.954 218.365 236.259 221.144 235.106 223.743C231.541 232.857 225.877 240.425 219.82 248.086" fill="#263238"/>
<path d="M398.674 281.45C400.762 282.938 447.129 382.812 447.129 382.812C443.4 381.219 439.27 380.816 435.303 381.658L432.788 382.327C428.287 383.537 424.018 385.486 420.156 388.096L406.923 397.048C406.399 396.747 405.955 396.325 405.628 395.817C405.301 395.309 405.1 394.731 405.042 394.129V393.749L369.094 332.05L398.674 281.45Z" fill="#9A8DA3"/>
<path d="M224.573 122.45L236.941 192.744C240.921 202.204 287.333 259.518 287.333 259.518L271.989 308.826L211.029 225.473C205.368 219.421 202.29 211.401 202.446 203.115L204.822 128.011L224.573 122.45Z" fill="#FFBE9D"/>
<path d="M290.391 248.501L322.221 250.912L349.978 255.215C349.978 255.215 398.675 268.01 398.675 273.34C398.675 275.116 385.384 317.445 377.909 342.802C376.076 348.961 374.582 355.216 373.432 361.538L398.675 417.422H278.889V366.187C278.889 366.187 270.813 298.893 272.232 289.699C273.651 280.504 290.391 248.501 290.391 248.501Z" fill="#9A8DA3"/>
<path d="M209.472 94.0473C209.659 86.8877 210.392 79.7527 211.664 72.7044C211.837 71.7007 212.252 70.4893 213.256 70.397C214.502 70.2355 215.137 71.8391 215.298 73.0851C216.404 81.5854 216.049 90.2122 214.248 98.5928" fill="#EB996E"/>
<path d="M223.662 242.894C237.322 230.688 237.783 209.541 236.618 192.709C236.39 191.48 236.577 190.21 237.149 189.098C238.453 187.241 241.625 187.945 242.917 189.814C244.209 191.683 244.071 194.14 244.002 196.401C244.705 194.486 247.705 194.497 249.112 195.974C250.52 197.451 250.762 199.677 250.924 201.743L251.374 207.372L291.279 245.444C291.279 245.444 292.375 241.983 295.306 243.979C298.236 245.974 300.128 250.185 300.128 250.185L272.013 311.549L219.832 248.097C220.836 246.177 222.127 244.423 223.662 242.894Z" fill="#9A8DA3"/>
<path d="M277.816 285.361C273.652 290.672 270.543 296.73 268.655 303.208C266.774 309.73 266.98 316.676 269.244 323.075C270.995 327.502 273.863 331.4 277.569 334.388C281.276 337.376 285.693 339.353 290.391 340.126" fill="#9A8DA3"/>
<path d="M237.564 238.383C237.731 237.823 237.947 237.279 238.21 236.757C238.671 235.741 239.294 234.242 239.998 232.373C240.702 230.504 241.452 228.242 242.155 225.704C242.887 222.934 243.468 220.127 243.897 217.294C244.296 214.46 244.539 211.606 244.624 208.745C244.624 206.103 244.624 203.727 244.463 201.731C244.301 199.735 244.151 198.132 244.001 197.024C243.902 196.448 243.848 195.866 243.84 195.282C244.027 195.837 244.159 196.409 244.232 196.989C244.531 198.546 244.751 200.117 244.89 201.696C245.115 204.043 245.211 206.4 245.178 208.757C245.09 214.536 244.253 220.279 242.686 225.843C242.042 228.111 241.271 230.341 240.379 232.523C239.617 234.392 238.937 235.868 238.406 236.86C238.164 237.388 237.882 237.898 237.564 238.383Z" fill="#263238"/>
<path d="M246.251 227.666C246.627 226.673 247.059 225.703 247.543 224.758C249.563 220.076 250.735 215.072 251.004 209.98C251.003 208.92 251.06 207.861 251.177 206.807C251.404 207.852 251.489 208.923 251.431 209.991C251.391 215.165 250.21 220.267 247.97 224.931C247.529 225.92 246.951 226.84 246.251 227.666Z" fill="#263238"/>
<path d="M293.113 259.576C293.021 259.519 293.505 258.769 293.782 257.407C294.105 255.628 294.003 253.798 293.482 252.066C292.934 250.323 292.267 248.619 291.486 246.967C291.122 246.283 290.85 245.553 290.679 244.798C291.135 245.415 291.522 246.08 291.832 246.782C292.745 248.407 293.484 250.124 294.036 251.904C294.588 253.727 294.631 255.666 294.163 257.511C294.018 258.286 293.653 259.003 293.113 259.576Z" fill="#263238"/>
<path d="M286.179 340.841C285.999 340.766 285.828 340.669 285.672 340.552L284.31 339.653C283.157 338.857 281.438 337.691 279.43 336.111C277.057 334.283 274.888 332.206 272.958 329.916C270.584 327.08 268.873 323.749 267.951 320.167C267.07 316.584 266.844 312.871 267.282 309.207C267.636 306.236 268.297 303.309 269.255 300.474C269.89 298.563 270.625 296.688 271.459 294.855C271.758 294.209 271.989 293.702 272.162 293.379C272.239 293.199 272.335 293.029 272.451 292.871C272.232 293.577 271.974 294.271 271.678 294.948C271.159 296.263 270.409 298.178 269.659 300.601C268.773 303.423 268.162 306.325 267.836 309.265C267.434 312.862 267.669 316.501 268.528 320.017C269.426 323.519 271.084 326.781 273.385 329.569C275.274 331.846 277.388 333.925 279.696 335.776C281.657 337.391 283.307 338.603 284.449 339.468L285.741 340.46C286.041 340.691 286.191 340.818 286.179 340.841Z" fill="#263238"/>
<path d="M351.535 352.251C351.375 352.335 351.204 352.397 351.027 352.435C350.681 352.527 350.185 352.701 349.528 352.827C347.669 353.23 345.776 353.458 343.875 353.508C337.535 353.703 331.282 351.995 325.922 348.604C320.561 345.214 316.339 340.296 313.798 334.484C313.024 332.746 312.417 330.938 311.987 329.085C311.826 328.427 311.768 327.931 311.699 327.562C311.659 327.384 311.64 327.202 311.641 327.02C311.877 327.672 312.07 328.338 312.218 329.016C314.054 335.981 318.166 342.133 323.9 346.493C329.633 350.854 336.66 353.173 343.863 353.081C345.746 353.072 347.625 352.91 349.481 352.597C350.159 352.445 350.845 352.33 351.535 352.251Z" fill="#263238"/>
<path d="M385.983 361.134C385.845 361.214 381.207 353.635 375.6 344.198C369.994 334.761 365.61 327.043 365.76 326.962C365.91 326.881 370.536 334.449 376.143 343.886C381.75 353.323 386.18 361.041 385.983 361.134Z" fill="#263238"/>
<g opacity="0.3">
<path d="M312.875 329.477C310.164 334.622 312.425 340.898 314.906 346.171C316.832 350.255 318.978 354.396 322.485 357.246C324.209 358.655 326.205 359.692 328.348 360.293C330.491 360.894 332.735 361.045 334.94 360.737C337.144 360.43 339.261 359.67 341.158 358.505C343.055 357.34 344.691 355.796 345.963 353.97C338.608 353.86 331.459 351.529 325.455 347.281C319.451 343.033 314.872 337.068 312.321 330.169" fill="black"/>
</g>
<g opacity="0.3">
<path d="M365.841 326.962C363.764 331.911 365.333 338.683 367.502 343.586C369.671 348.489 371.978 353.969 370.236 359.057C369.787 359.96 369.554 360.956 369.556 361.964C369.671 362.957 370.709 363.914 371.644 363.453C372.127 363.113 372.461 362.601 372.578 362.022C374.216 357.084 375.858 352.15 377.504 347.22" fill="black"/>
</g>
<path d="M256.703 261.791C256.889 258.693 257.274 255.61 257.857 252.562C258.249 249.497 258.838 246.46 259.622 243.471C259.448 246.57 259.062 249.654 258.468 252.7C258.08 255.766 257.49 258.803 256.703 261.791Z" fill="#FAFAFA"/>
<path d="M244.555 259.242C244.405 259.334 242.421 256.565 239.675 253.381C236.929 250.197 234.507 247.809 234.622 247.682C236.691 249.195 238.546 250.98 240.137 252.989C241.874 254.873 243.36 256.975 244.555 259.242Z" fill="#FAFAFA"/>
<path d="M254.985 229.523C254.637 230.266 254.2 230.964 253.681 231.6C252.804 232.834 251.524 234.484 250.035 236.214C248.547 237.945 247.117 239.502 246.044 240.564C245.506 241.18 244.889 241.723 244.209 242.179C244.082 242.064 246.609 239.329 249.574 235.822C252.539 232.315 254.846 229.373 254.985 229.523Z" fill="#FAFAFA"/>
<path d="M250.912 214.998C250.739 215.067 250.081 213.602 248.812 212.137C247.543 210.672 246.182 209.83 246.274 209.657C247.474 210.002 248.525 210.737 249.262 211.745C250.149 212.622 250.728 213.764 250.912 214.998Z" fill="#FAFAFA"/>
<path d="M240.39 223.951C239.448 224.395 238.43 224.657 237.39 224.724C236.382 224.987 235.331 225.05 234.298 224.908C236.249 224.201 238.317 223.876 240.39 223.951Z" fill="#FAFAFA"/>
<path d="M266.936 236.768C266.962 234.972 266.835 233.177 266.555 231.403C266.078 229.671 265.448 227.984 264.675 226.362C265.983 227.706 266.842 229.423 267.132 231.276C267.626 233.084 267.557 235 266.936 236.768Z" fill="#FAFAFA"/>
<path d="M281.115 252.019C278.987 248.622 276.13 245.742 272.751 243.586C274.659 244.326 276.389 245.459 277.83 246.912C279.272 248.365 280.391 250.105 281.115 252.019Z" fill="#FAFAFA"/>
<path d="M258.353 278.485C254.919 279.771 251.114 279.643 247.774 278.127C247.832 277.954 250.081 278.681 253.046 278.761C256.011 278.842 258.307 278.311 258.353 278.485Z" fill="#FAFAFA"/>
<path d="M269.036 283.965C268.875 283.895 269.775 281.242 270.524 277.873C271.274 274.505 271.609 271.713 271.782 271.736C271.901 273.846 271.675 275.962 271.113 278C270.746 280.087 270.045 282.101 269.036 283.965Z" fill="#FAFAFA"/>
<path d="M292.375 284.853C290.55 283.311 288.863 281.612 287.333 279.777C285.645 278.078 284.102 276.241 282.719 274.285C284.537 275.836 286.219 277.538 287.749 279.373C289.435 281.072 290.983 282.905 292.375 284.853Z" fill="#FAFAFA"/>
<path d="M303.242 311.814C301.859 310.81 300.596 309.649 299.481 308.353C298.23 307.191 297.116 305.891 296.159 304.477C297.542 305.481 298.804 306.642 299.92 307.938C301.181 309.09 302.297 310.391 303.242 311.814Z" fill="#FAFAFA"/>
<path d="M283.042 314.387C281.715 315.799 280.154 316.97 278.427 317.848C276.802 318.929 274.997 319.711 273.097 320.155C273.097 319.994 275.404 319.002 278.127 317.375C280.85 315.748 282.926 314.248 283.042 314.387Z" fill="#FAFAFA"/>
<path d="M292.34 340.033C292.167 340.033 292.859 336.964 293.205 333.169C293.552 329.373 293.448 326.247 293.621 326.247C294.045 328.53 294.107 330.866 293.805 333.169C293.69 335.521 293.195 337.839 292.34 340.033Z" fill="#FAFAFA"/>
<path d="M327.308 319.187C325.402 318.02 323.712 316.533 322.312 314.791C320.769 313.181 319.523 311.31 318.632 309.265C318.782 309.161 320.363 311.665 322.762 314.399C325.162 317.133 327.423 319.037 327.308 319.187Z" fill="#FAFAFA"/>
<path d="M340.079 330.066C339.941 329.962 341.694 327.562 343.656 324.482C345.617 321.402 347.059 318.818 347.209 318.898C346.46 320.996 345.432 322.983 344.152 324.805C343.044 326.739 341.674 328.509 340.079 330.066Z" fill="#FAFAFA"/>
<path d="M338.21 303.439C334.271 302.785 330.407 301.741 326.674 300.324C328.663 300.561 330.625 300.986 332.534 301.593C334.484 302.015 336.385 302.634 338.21 303.439Z" fill="#FAFAFA"/>
<path d="M328.9 350.301C328.695 348.484 328.695 346.65 328.9 344.833C328.915 343.005 329.124 341.183 329.523 339.399C329.73 341.216 329.73 343.05 329.523 344.867C329.512 346.696 329.303 348.518 328.9 350.301Z" fill="#FAFAFA"/>
<path d="M362.772 333.965C361.455 332.74 360.272 331.379 359.242 329.904C358.067 328.545 357.043 327.064 356.185 325.486C357.515 326.694 358.699 328.053 359.715 329.535C360.901 330.89 361.926 332.376 362.772 333.965Z" fill="#FAFAFA"/>
<path d="M387.137 327.804C383.399 327.711 379.721 326.839 376.339 325.243C378.166 325.555 379.973 325.975 381.75 326.501C383.57 326.826 385.37 327.261 387.137 327.804Z" fill="#FAFAFA"/>
<path d="M224.689 123.235C222.832 105.688 219.474 89.1787 218.563 71.9774C218.599 71.5461 218.545 71.112 218.404 70.7028C218.263 70.2937 218.038 69.9183 217.744 69.6009C217.493 69.454 217.214 69.3598 216.925 69.324C216.637 69.2881 216.344 69.3114 216.064 69.3923C215.785 69.4732 215.525 69.6102 215.3 69.7948C215.075 69.9794 214.89 70.2078 214.756 70.4661C214.253 71.5459 214.053 72.7425 214.179 73.9271C214.199 83.0748 212.638 92.1571 209.564 100.773C207.592 106.368 204.95 111.733 203.473 117.467C201.996 123.201 204.777 125.15 207.361 130.492" fill="#FFBE9D"/>
<path d="M207.395 130.468C205.11 128.715 203.337 126.38 202.264 123.707C201.19 121.034 200.855 118.122 201.292 115.275C201.881 111.813 203.6 108.675 204.961 105.445C206.322 102.215 207.372 98.627 206.542 95.2237C206.082 93.9605 205.773 92.6479 205.619 91.3127C205.619 89.9744 206.484 88.4747 207.822 88.417C208.328 88.4578 208.817 88.6156 209.252 88.8779C209.686 89.1401 210.054 89.4997 210.326 89.9283C212.575 92.7087 214.375 100.831 213.244 106.899" fill="#FFBE9D"/>
<path d="M213.244 106.899C213.244 106.899 213.36 105.965 213.429 104.28C213.501 101.904 213.304 99.528 212.841 97.1967C212.53 95.591 212.066 94.0187 211.456 92.5012C211.135 91.6757 210.7 90.8991 210.164 90.1939C209.924 89.8155 209.608 89.4903 209.237 89.2383C208.866 88.9863 208.447 88.8129 208.007 88.7287C207.553 88.7503 207.119 88.9199 206.771 89.2116C206.423 89.5033 206.181 89.9011 206.08 90.3439C205.833 91.3274 205.897 92.3635 206.265 93.3088C206.653 94.3643 206.923 95.4591 207.072 96.5737C207.184 97.7279 207.141 98.8918 206.945 100.035C206.138 104.719 203.646 108.503 202.331 112.252C201.682 114.004 201.335 115.853 201.304 117.721C201.297 119.347 201.538 120.966 202.019 122.52C202.718 124.787 203.899 126.877 205.48 128.646C206.634 129.88 207.384 130.422 207.349 130.48C207.143 130.376 206.95 130.248 206.772 130.099C206.251 129.703 205.762 129.267 205.307 128.796C203.621 127.057 202.358 124.953 201.615 122.647C201.09 121.057 200.817 119.395 200.808 117.721C200.818 115.793 201.157 113.881 201.812 112.068C203.081 108.237 205.538 104.453 206.299 99.9424C206.496 98.8462 206.539 97.7279 206.426 96.6198C206.288 95.5368 206.028 94.4726 205.653 93.4472C205.254 92.3876 205.198 91.2296 205.492 90.1362C205.664 89.5904 205.978 89.1004 206.403 88.7172C206.616 88.519 206.867 88.3666 207.141 88.2693C207.414 88.1721 207.705 88.1321 207.995 88.1519C208.524 88.2218 209.031 88.4029 209.485 88.6833C209.938 88.9637 210.327 89.337 210.626 89.7786C211.187 90.5422 211.637 91.3811 211.964 92.2705C212.574 93.82 213.022 95.4283 213.302 97.0698C213.739 99.4351 213.875 101.846 213.706 104.246C213.665 104.897 213.581 105.544 213.452 106.184C213.417 106.431 213.347 106.672 213.244 106.899Z" fill="#EB996E"/>
<path d="M364.064 200.589C364.441 202.239 365.335 203.726 366.615 204.834C367.895 205.942 369.495 206.613 371.182 206.749C372.874 206.832 374.558 206.484 376.077 205.737C377.597 204.991 378.902 203.87 379.87 202.481C381.785 199.656 382.556 196.208 382.027 192.836C381.369 187.979 378.139 183.307 373.455 181.865C368.771 180.422 362.945 183.018 361.653 187.725L356.254 195.259L364.064 200.589Z" fill="#263238"/>
<path d="M357.684 185.787C358.208 181.612 357.887 177.375 356.742 173.326C355.597 169.277 353.65 165.5 351.017 162.218C348.384 158.936 345.118 156.216 341.414 154.221C337.71 152.225 333.643 150.994 329.454 150.6C312.714 149.008 297.82 161.479 295.316 178.115C293.113 192.697 291.221 207.418 291.29 212.725C291.498 228.877 300.923 235.13 304.753 236.952C306.129 237.448 307.551 237.8 308.999 238.002C309.013 238.005 309.026 238.01 309.037 238.018C309.049 238.026 309.059 238.036 309.067 238.048C309.074 238.06 309.079 238.074 309.081 238.087C309.084 238.101 309.083 238.115 309.08 238.129L305.503 256.588C303.877 268.713 310.649 279.535 322.751 281.3C334.853 283.065 344.394 273.755 346.251 261.618L357.684 185.787Z" fill="#FFBE9D"/>
<path d="M309.103 238.118C309.103 238.118 319.486 240.517 333.849 234.518C333.849 234.518 327.666 247.843 308.145 243.101L309.103 238.118Z" fill="#EB996E"/>
<path d="M292.155 174.504C295.49 179.592 306.08 176.442 312.472 172.947C315.81 175.076 319.848 175.82 323.726 175.018C327.604 174.217 331.017 171.934 333.238 168.655C336.895 173.27 344.336 171.77 347.082 166.521C349.828 161.272 348.235 154.038 344.544 149.446C340.852 144.855 335.384 142.524 330.007 141.544C317.259 139.236 303.381 144.128 295.755 155.653C292.236 160.972 290.125 168.136 292.213 174.504" fill="#263238"/>
<path d="M327.389 143.355C327.389 143.586 324.378 143.009 319.648 143.794C313.504 144.816 307.872 147.847 303.635 152.412C299.646 157.191 297.009 162.951 295.997 169.094C295.647 171.655 295.512 174.24 295.594 176.823C295.348 176.157 295.204 175.457 295.167 174.747C294.965 172.827 294.996 170.891 295.259 168.978C296.095 162.598 298.746 156.592 302.896 151.673C307.282 146.924 313.192 143.858 319.602 143.009C321.514 142.752 323.45 142.721 325.37 142.917C326.061 142.959 326.742 143.107 327.389 143.355Z" fill="#455A64"/>
<path d="M310.153 167.075C309.963 166.491 309.877 165.877 309.899 165.264C309.839 163.59 310.013 161.916 310.418 160.291C311.035 157.566 312.204 154.996 313.852 152.739C315.499 150.482 317.591 148.586 319.999 147.169C322.407 145.751 325.08 144.841 327.853 144.494C330.625 144.148 333.44 144.373 336.122 145.155C337.741 145.599 339.293 146.259 340.737 147.116C341.293 147.406 341.79 147.797 342.202 148.27C340.19 147.318 338.097 146.546 335.949 145.963C330.724 144.632 325.185 145.42 320.538 148.156C315.892 150.892 312.516 155.353 311.145 160.568C310.015 164.421 310.372 167.075 310.153 167.075Z" fill="#455A64"/>
<path d="M340.737 161.537C339.486 166.053 338.766 170.699 338.591 175.381C338.418 180.09 339.882 184.713 342.733 188.464C347.186 193.828 354.615 195.467 361.468 196.77C365.134 187.625 366.239 177.654 364.664 167.929C363.879 163.21 362.357 158.399 359.034 154.961C356.564 152.524 353.355 150.976 349.91 150.558C346.465 150.141 342.979 150.878 339.998 152.654" fill="#263238"/>
<path d="M344.544 183.872C342.744 187.771 342.871 192.282 343.494 196.562C344.117 200.842 345.202 205.03 345.155 209.322C345.109 213.614 343.748 218.171 340.379 220.859C339.358 221.54 338.4 222.312 337.518 223.166C337.083 223.599 336.792 224.156 336.684 224.761C336.577 225.366 336.659 225.989 336.918 226.546C337.564 227.585 339.514 227.561 339.791 226.373L339.618 226.673C339.448 226.96 339.356 227.288 339.353 227.621C339.349 227.955 339.433 228.284 339.597 228.575C339.761 228.866 339.998 229.109 340.285 229.28C340.572 229.45 340.899 229.542 341.233 229.546C342.412 229.489 343.567 229.192 344.626 228.672C345.686 228.152 346.628 227.421 347.394 226.523C349.597 223.974 350.474 220.547 351.051 217.294C352.827 207.107 352.481 196.528 355.296 186.594" fill="#263238"/>
<path d="M305.423 250.774C306.217 254.244 307.749 257.503 309.915 260.329C312.08 263.154 314.828 265.481 317.972 267.151C321.116 268.821 324.582 269.795 328.136 270.007C331.69 270.219 335.248 269.663 338.568 268.379C344.544 266.071 349.366 261.572 354.016 257.177C354.848 262.18 354.619 267.303 353.343 272.213C352.068 277.122 349.775 281.709 346.612 285.675C343.45 289.641 339.489 292.899 334.987 295.235C330.485 297.572 325.542 298.936 320.478 299.24C312.829 299.701 304.615 297.371 299.804 291.406C296.447 287.253 295.097 281.75 295.19 276.408C295.423 271.058 296.441 265.772 298.212 260.718C299.574 256.357 301.731 251.489 306.138 250.278" fill="#9A8DA3"/>
<path d="M360.153 197.07C364.767 199.551 367.236 204.742 368.125 209.864C369.013 214.987 368.563 220.248 368.782 225.428C369.001 230.608 369.994 236.053 373.282 240.079C376.743 244.371 382.222 246.401 387.126 249.02C397.878 254.789 406.738 264.629 409.968 276.42C413.199 288.21 410.268 301.801 401.443 310.28C393.367 317.964 381.715 320.663 370.593 320.663C362.668 320.663 353.957 318.956 349.008 312.761C344.059 306.565 344.394 297.878 346.124 290.241C347.855 282.604 351.027 275.185 351.154 267.352C349.97 272.202 347.905 276.792 345.063 280.896C344.244 282.05 342.848 283.319 341.602 282.65C340.356 281.981 340.736 279.823 341.382 278.381C350.935 257.119 347.612 214.26 353.277 190.783" fill="#263238"/>
<path d="M352.285 194.659C352.574 194.567 363.73 192.455 362.288 203.485C360.846 214.514 350.082 210.799 350.105 210.487C350.128 210.176 352.285 194.659 352.285 194.659Z" fill="#FFBE9D"/>
<path d="M354.015 206.75C354.015 206.75 354.188 206.9 354.5 207.096C354.931 207.35 355.443 207.428 355.931 207.315C357.153 207.038 358.376 205.308 358.688 203.335C358.833 202.391 358.77 201.426 358.503 200.508C358.445 200.15 358.3 199.811 358.081 199.522C357.862 199.232 357.575 199 357.246 198.847C357.038 198.774 356.813 198.771 356.604 198.84C356.395 198.909 356.215 199.045 356.092 199.228C355.907 199.516 355.942 199.747 355.884 199.758C355.827 199.77 355.677 199.539 355.815 199.101C355.914 198.835 356.101 198.611 356.346 198.466C356.517 198.363 356.708 198.297 356.907 198.271C357.106 198.245 357.307 198.261 357.5 198.316C357.941 198.466 358.337 198.725 358.65 199.07C358.963 199.416 359.182 199.835 359.288 200.289C359.629 201.306 359.72 202.391 359.553 203.45C359.195 205.665 357.788 207.592 356.092 207.846C355.785 207.895 355.471 207.874 355.173 207.784C354.875 207.694 354.602 207.538 354.373 207.327C354.004 207.015 353.981 206.761 354.015 206.75Z" fill="#EB996E"/>
<path d="M294.025 274.54C294.566 273.362 295.19 272.225 295.893 271.136C297.501 268.475 298.835 265.657 299.874 262.726C300.883 259.793 301.222 256.67 300.866 253.589C300.641 252.324 300.349 251.072 299.989 249.839C300.206 250.12 300.374 250.436 300.485 250.774C300.862 251.658 301.133 252.584 301.293 253.531C301.778 256.68 301.489 259.899 300.45 262.91C299.403 265.885 297.997 268.721 296.263 271.355C295.617 272.371 295.109 273.178 294.682 273.72C294.255 274.263 294.059 274.563 294.025 274.54Z" fill="#263238"/>
<path d="M299.643 261.814C299.481 261.814 299.17 260.868 298.178 260.211C297.186 259.553 296.193 259.553 296.17 259.38C296.147 259.207 296.413 259.184 296.863 259.172C297.459 259.178 298.039 259.367 298.524 259.715C299.012 260.056 299.389 260.533 299.608 261.087C299.758 261.514 299.724 261.791 299.643 261.814Z" fill="#FAFAFA"/>
<path d="M306.773 261.791C305.908 260.82 304.958 259.928 303.935 259.126C302.798 258.49 301.6 257.972 300.358 257.58C301.045 257.485 301.745 257.529 302.414 257.71C303.084 257.89 303.711 258.203 304.258 258.63C305.477 259.315 306.379 260.45 306.773 261.791Z" fill="#FAFAFA"/>
<path d="M311.249 285.199C311.276 283.608 311.5 282.027 311.918 280.492C312.141 278.907 312.563 277.356 313.175 275.877C313.149 277.472 312.924 279.057 312.506 280.596C312.283 282.177 311.86 283.724 311.249 285.199Z" fill="#FAFAFA"/>
<path d="M329.246 288.729C328.958 285.418 329.062 282.083 329.558 278.796C329.862 282.107 329.757 285.444 329.246 288.729Z" fill="#FAFAFA"/>
<path d="M146.539 244.821C142.963 240.033 138.856 235.43 136.975 229.754C136.064 227.008 135.706 224.101 134.737 221.378C133.768 218.656 132.003 216.002 129.303 214.975C126.604 213.949 124.55 214.975 122.796 216.914L109.887 254.673L117.328 283.677C124.758 282.004 134.056 280.02 141.001 276.893C147.947 273.767 152.538 268.76 153.023 261.157C153.357 255.192 150.115 249.62 146.539 244.821Z" fill="#263238"/>
<path d="M29.0603 238.153C29.0603 238.153 -15.8176 257.684 -21.4245 266.498C-27.0313 275.313 -45.4901 338.153 -45.4901 338.153L1.81051 351.997L1.00294 417.422H116.947L115.99 302.055L101.453 238.303C101.453 238.303 75.8533 236.653 73.4767 235.488C71.1001 234.322 29.0603 238.153 29.0603 238.153Z" fill="#C3D3D2"/>
<path d="M188.544 78.2416C188.913 75.5997 187.056 72.6925 188.394 70.3736C189.279 69.1785 190.544 68.3201 191.982 67.9393C192.678 67.621 193.431 67.4445 194.197 67.4202C194.579 67.414 194.954 67.5201 195.276 67.7252C195.598 67.9303 195.852 68.2253 196.008 68.5738C196.091 69.0151 196.052 69.4706 195.896 69.8914C195.739 70.3121 195.471 70.6823 195.12 70.962C194.417 71.5144 193.826 72.1956 193.378 72.9693C193.065 74.8683 193.211 76.8147 193.805 78.6454C195.342 82.6738 196.617 86.7972 197.623 90.9897" fill="#B78876"/>
<path d="M179.072 79.1415C179.234 75.1382 182.533 59.3675 182.649 55.3643C185.36 56.1949 186.929 59.0791 187.436 61.871C187.944 64.6629 187.679 67.5355 188.163 70.3274C188.809 74.0768 190.759 77.4571 192.72 80.7105C194.681 83.9638 196.735 87.2749 197.623 90.9666C198.512 94.6584 201.857 104.257 199.25 107.026" fill="#B78876"/>
<path d="M178.323 106.138L162.275 182.373C161.71 185.834 101.453 238.384 101.453 238.384L113.348 285.904L191.798 209.15C197.462 203.094 200.545 195.07 200.392 186.78L199.054 115.252L178.323 106.138Z" fill="#B78876"/>
<path d="M175.577 79.6264L178.323 106.161L199.089 115.298C199.089 115.298 199.343 113.418 200.243 104.223C201.224 94.0935 190.333 89.7442 185.476 82.303C183.399 79.1073 183.942 73.2235 182.338 65.9323C182.153 65.0901 181 59.9909 180.377 57.2567C180.049 55.7373 179.159 54.3979 177.885 53.5073C176.939 52.8843 175.877 52.5728 175.104 53.5073C174.331 54.4417 175.577 79.6264 175.577 79.6264Z" fill="#B78876"/>
<path d="M188.544 110.545C190.851 108.549 191.405 104.973 190.54 102.008C189.481 99.0884 187.809 96.4293 185.637 94.2092C183.468 91.9947 181.644 89.4668 180.226 86.7103C179.349 84.726 178.934 82.534 177.919 80.5843C176.904 78.6346 175.185 76.8464 173.016 76.7656C174.758 87.7371 174.712 94.0707 178.276 106.092" fill="#B78876"/>
<path d="M175.173 89.2939C175.173 89.2939 175.092 88.994 174.965 88.4171C174.838 87.8403 174.619 86.8827 174.412 85.9021C173.916 83.5948 173.258 80.6529 172.577 77.2726L172.508 76.9496H172.843C173.553 76.9237 174.261 77.0388 174.926 77.2883C175.592 77.5379 176.201 77.9168 176.719 78.4032C178.303 79.9107 179.431 81.8338 179.972 83.9524C180.433 85.599 181.039 87.2012 181.784 88.7402C182.348 89.751 183.03 90.6919 183.814 91.5436C184.1 91.8708 184.334 92.2405 184.506 92.6396C184.19 92.3469 183.897 92.0307 183.629 91.6936C182.771 90.8823 182.026 89.9587 181.414 88.9478C180.599 87.4039 179.935 85.7852 179.43 84.1139C178.894 82.1013 177.816 80.274 176.315 78.8301C175.38 77.952 174.137 77.4757 172.854 77.5034L173.131 77.1573C174.527 84.1024 175.427 89.3055 175.173 89.2939Z" fill="#7C5142"/>
<path d="M184.506 82.5453C183.669 78.9762 183.03 75.3635 182.591 71.7238C181.95 68.1128 181.507 64.4694 181.265 60.8101C182.108 64.3818 182.747 67.9987 183.18 71.6431C183.82 75.2502 184.263 78.8897 184.506 82.5453Z" fill="#7C5142"/>
<path d="M191.117 83.4451C191.117 83.4451 191.197 83.5604 191.267 83.8488H191.094C190.236 81.3805 189.534 78.8605 188.994 76.3038C188.498 74.0772 188.14 72.0468 187.921 70.5355C187.743 69.7449 187.673 68.9337 187.713 68.1243C187.886 68.1243 188.59 71.7122 189.582 76.2C190.378 79.7879 191.117 82.8105 191.267 83.8258H191.094C191.082 83.5835 191.082 83.4451 191.117 83.4451Z" fill="#7C5142"/>
<path d="M195.212 98.062C195.12 98.062 194.705 97.4621 193.874 96.5738C191.68 94.2422 188.701 92.8041 185.51 92.536C184.843 92.5418 184.176 92.4994 183.514 92.4091C184.153 92.1613 184.838 92.0589 185.522 92.1091C187.184 92.13 188.822 92.5159 190.319 93.2395C191.816 93.9632 193.136 95.0069 194.186 96.2969C194.658 96.7993 195.009 97.4031 195.212 98.062Z" fill="#7C5142"/>
<path d="M180.203 108.237C179.632 107.244 179.172 106.192 178.83 105.099C177.882 102.51 177.088 99.8678 176.454 97.1849C175.808 94.5245 175.323 91.8277 175 89.1092C174.811 87.9658 174.742 86.8059 174.792 85.6482C175.082 86.7505 175.29 87.8726 175.415 89.0054C175.761 91.0705 176.292 93.9316 177.03 97.0811C177.769 100.231 178.599 102.988 179.234 104.995C179.632 106.052 179.956 107.135 180.203 108.237Z" fill="#7C5142"/>
<path d="M87.3671 239.756C88.395 238.182 89.9895 237.064 91.8198 236.634C93.65 236.205 95.5754 236.496 97.1964 237.449C105.664 230.527 114.328 223.812 122.796 216.925C120.028 230.769 118.182 250.07 124.377 262.737C124.377 262.737 132.187 277.25 144.624 275.035L133.526 285.903L116.024 302.135" fill="#C3D3D2"/>
<path d="M84.6216 246.217C84.6346 244.359 85.201 242.548 86.2483 241.014C87.1326 239.375 88.4811 238.035 90.1246 237.16C87.5179 239.636 85.6183 242.762 84.6216 246.217Z" fill="#263238"/>
<path d="M93.7699 254.754C93.2896 253.985 92.9607 253.132 92.8008 252.239C92.3028 250.1 92.2433 247.881 92.626 245.718C93.0087 243.555 93.8256 241.492 95.0274 239.653C95.4856 238.866 96.0884 238.173 96.804 237.611C96.8848 237.68 96.2157 238.464 95.3966 239.918C94.331 241.757 93.5932 243.768 93.2161 245.859C92.8549 247.955 92.8549 250.097 93.2161 252.193C93.5045 253.693 93.8622 254.662 93.7699 254.754Z" fill="#263238"/>
<path d="M136.156 284.38C135.304 284.91 134.373 285.299 133.398 285.534C130.733 286.177 127.945 286.093 125.323 285.292C121.44 284.059 118.042 281.637 115.609 278.37C112.686 274.362 110.714 269.743 109.84 264.86C108.211 256.068 107.746 247.1 108.456 238.187C108.721 234.726 109.102 232.027 109.425 230.111C109.575 229.165 109.714 228.439 109.817 227.943C109.853 227.687 109.915 227.436 110.002 227.193C110.01 227.452 109.987 227.712 109.933 227.966L109.656 230.146C109.414 232.038 109.091 234.761 108.883 238.222C108.293 247.096 108.812 256.01 110.429 264.756C111.293 269.512 113.204 274.017 116.024 277.943C118.357 281.177 121.645 283.598 125.427 284.865C127.98 285.687 130.702 285.834 133.329 285.292C134.291 285.051 135.235 284.747 136.156 284.38Z" fill="#FAFAFA"/>
<path d="M2.02969 371.471C1.86818 371.471 1.72974 355.066 1.72974 334.842C1.72974 314.618 1.86818 298.213 2.02969 298.213C2.19121 298.213 2.32964 314.607 2.32964 334.842C2.32964 355.077 2.20274 371.471 2.02969 371.471Z" fill="#263238"/>
<path d="M1.10666 285.557C0.979757 285.557 1.01437 283.919 0.449068 281.369C0.112267 279.88 -0.370772 278.427 -0.993024 277.032C-1.76834 275.334 -2.72368 273.725 -3.8426 272.232C-4.99264 270.76 -6.29591 269.414 -7.73047 268.218C-8.91162 267.252 -10.1826 266.402 -11.5261 265.679C-13.8334 264.468 -15.437 264.064 -15.4024 263.949C-15.0086 263.969 -14.62 264.047 -14.2487 264.18C-13.8115 264.289 -13.3833 264.431 -12.9682 264.607C-12.4022 264.802 -11.8509 265.037 -11.3184 265.31C-9.9325 265.989 -8.62493 266.817 -7.41898 267.779C-5.93797 268.989 -4.59538 270.358 -3.41574 271.863C-2.26433 273.395 -1.29634 275.056 -0.531552 276.812C0.0967474 278.249 0.564885 279.75 0.864391 281.289C0.982767 281.875 1.06369 282.469 1.10666 283.065C1.16061 283.513 1.18373 283.964 1.17588 284.415C1.19683 284.797 1.17361 285.181 1.10666 285.557Z" fill="#263238"/>
<path d="M80.122 237.645C80.2177 237.965 80.2834 238.293 80.3181 238.625C80.4736 239.561 80.5738 240.505 80.618 241.452C80.7559 244.952 80.2675 248.449 79.1759 251.777C77.5503 256.741 74.669 261.2 70.8118 264.721C65.9739 268.949 59.8982 271.499 53.4919 271.99C47.0857 272.481 40.6925 270.886 35.2671 267.444C30.9301 264.542 27.4169 260.568 25.0686 255.907C23.4957 252.779 22.4917 249.396 22.1037 245.917C22.01 244.974 21.9676 244.026 21.9768 243.079C21.949 242.748 21.949 242.417 21.9768 242.086C22.0309 242.41 22.058 242.738 22.0576 243.067C22.0871 244.009 22.1641 244.948 22.2883 245.882C22.7608 249.312 23.8142 252.636 25.4032 255.711C27.7571 260.278 31.2401 264.166 35.5209 267.006C40.8481 270.355 47.109 271.909 53.3842 271.437C59.6593 270.966 65.6179 268.495 70.3849 264.387C74.2001 260.938 77.0678 256.569 78.7145 251.697C79.8201 248.415 80.3661 244.972 80.3296 241.51C80.3296 240.287 80.2258 239.341 80.1335 238.695C80.0412 238.049 80.1104 237.656 80.122 237.645Z" fill="#263238"/>
<path d="M1.03779 337.737C1.03779 337.899 -8.54925 334.888 -20.2475 331.023C-31.9458 327.158 -41.3943 323.893 -41.3367 323.732C-41.279 323.57 -31.7612 326.581 -20.0514 330.446C-8.34158 334.311 1.08393 337.576 1.03779 337.737Z" fill="#FAFAFA"/>
<path d="M114.871 321.725C114.871 321.898 89.4321 322.14 58.0521 322.267C26.6722 322.394 1.22217 322.371 1.22217 322.267C1.22217 322.163 26.6607 321.852 58.0521 321.725C89.4436 321.598 114.871 321.563 114.871 321.725Z" fill="#FAFAFA"/>
<path d="M115.447 331.773C115.447 331.934 89.8705 332.073 58.3406 332.073C26.8107 332.073 1.22217 331.934 1.22217 331.773C1.22217 331.611 26.7876 331.473 58.3406 331.473C89.8935 331.473 115.447 331.6 115.447 331.773Z" fill="#FAFAFA"/>
<path d="M14.4202 148.708C9.55167 152.527 9.22864 159.668 9.47091 165.852C9.71318 172.036 9.7824 179.073 5.27154 183.342C1.57979 186.86 -4.88079 188.164 -5.94217 193.159C-6.2108 194.336 -6.10339 195.568 -5.63508 196.681C-5.16677 197.793 -4.36117 198.731 -3.33176 199.362C-2.30234 199.992 -1.101 200.284 0.103 200.196C1.307 200.108 2.45299 199.644 3.37952 198.87C1.81052 202.781 2.5258 207.788 5.85992 210.407C9.19403 213.026 15.0201 211.78 16.243 207.765C16.054 208.429 16.0018 209.125 16.0897 209.81C16.1776 210.495 16.4037 211.155 16.7543 211.749C17.105 212.344 17.5728 212.862 18.1294 213.271C18.686 213.679 19.3198 213.971 19.9924 214.127C20.6651 214.284 21.3624 214.302 22.0423 214.181C22.7221 214.059 23.3703 213.801 23.9474 213.422C24.5246 213.043 25.0187 212.551 25.3998 211.975C25.7809 211.399 26.0411 210.752 26.1646 210.072" fill="#263238"/>
<path d="M85.0716 193.483C85.3036 194.293 85.6998 195.047 86.2355 195.698C86.7713 196.349 87.4351 196.882 88.1857 197.266C88.9364 197.649 89.7578 197.874 90.5991 197.927C91.4404 197.979 92.2835 197.859 93.0761 197.572C93.8687 197.285 94.5938 196.838 95.2065 196.259C95.8191 195.68 96.3062 194.981 96.6375 194.206C96.9687 193.431 97.137 192.596 97.132 191.753C97.127 190.91 96.9488 190.077 96.6083 189.306C95.6508 186.907 93.1473 185.095 93.0896 182.523C92.9396 179.408 96.2161 177.343 99.0887 176.131C101.961 174.92 105.33 173.305 105.78 170.225C106.23 167.144 103.657 164.779 101.511 162.668C99.3656 160.557 97.3005 157.35 98.8118 154.742C99.5848 153.416 101.119 152.7 102.111 151.535C104.349 148.951 103.45 144.613 100.865 142.409C98.2812 140.206 94.5779 139.698 91.1976 140.102C87.8173 140.506 84.5871 141.775 81.276 142.594C75.7855 143.919 70.0798 144.091 64.5196 143.098C58.9594 142.105 53.6657 139.969 48.9731 136.826" fill="#263238"/>
<path d="M17.7312 172.497L29.6025 241.302C30.0944 244.182 31.1514 246.936 32.7125 249.405C34.2736 251.874 36.3081 254.01 38.6985 255.69C41.0889 257.369 43.7881 258.559 46.6405 259.19C49.4929 259.822 52.442 259.882 55.3179 259.369C60.767 258.393 65.6531 255.412 69.014 251.013C72.375 246.615 73.9671 241.117 73.4767 235.603C72.9345 229.5 72.473 224.447 72.473 224.447C72.473 224.447 89.7089 220.017 88.2207 202.527C87.4939 194.059 84.5982 176.743 81.7832 161.099C80.3237 153.002 75.8694 145.751 69.3065 140.79C62.7437 135.828 54.5535 133.519 46.3654 134.322L44.681 134.483C40.3902 135.156 36.2775 136.681 32.5856 138.969C28.8937 141.257 25.6975 144.261 23.1856 147.804C20.6737 151.347 18.8969 155.358 17.9601 159.599C17.0233 163.84 16.9455 168.225 17.7312 172.497Z" fill="#B78876"/>
<path d="M34.8522 151.454L34.7599 151.546C32.1889 154.013 30.6683 157.377 30.5144 160.937C30.5144 161.064 30.5144 161.191 30.5144 161.295C30.3183 166.359 30.9297 171.424 30.6874 176.477C30.4452 181.53 29.2107 186.768 25.8536 190.563C24.4807 192.121 21.8965 193.355 20.489 191.821C19.9992 191.175 19.7031 190.402 19.6353 189.594C17.5356 177.642 13.1978 167.271 11.9979 154.661C11.8258 152.975 12.0595 151.272 12.6797 149.694C13.2999 148.117 14.2884 146.711 15.5628 145.593C18.0086 143.436 21.0427 141.163 24.1115 142.271C27.1803 143.378 31.5066 148.489 34.01 150.589" fill="#263238"/>
<path d="M24.3993 179.834C24.0879 179.742 12.032 177.458 13.5779 189.375C15.1238 201.292 26.7759 197.289 26.7528 196.943C26.7298 196.597 24.3993 179.834 24.3993 179.834Z" fill="#B78876"/>
<path d="M22.5767 192.905C22.5767 192.905 22.3922 193.078 22.0576 193.274C21.8285 193.414 21.574 193.508 21.3088 193.549C21.0435 193.591 20.7726 193.58 20.5117 193.517C19.1965 193.217 17.8698 191.348 17.5352 189.213C17.3714 188.192 17.4384 187.148 17.7313 186.156C17.797 185.769 17.9551 185.403 18.192 185.09C18.429 184.777 18.7379 184.525 19.0927 184.356C19.3229 184.266 19.5773 184.258 19.8127 184.334C20.0482 184.409 20.2503 184.564 20.3848 184.772C20.5924 185.083 20.5463 185.337 20.6155 185.349C20.6847 185.36 20.8462 185.118 20.6847 184.633C20.5804 184.345 20.381 184.101 20.1194 183.941C19.7676 183.747 19.3555 183.694 18.9657 183.791C18.4878 183.953 18.0589 184.233 17.7198 184.607C17.3806 184.98 17.1424 185.434 17.0276 185.925C16.6527 187.039 16.5537 188.226 16.7392 189.386C17.1314 191.775 18.6543 193.863 20.4425 194.14C20.7747 194.193 21.1148 194.17 21.4368 194.073C21.7587 193.975 22.054 193.804 22.2999 193.574C22.5767 193.194 22.5767 192.917 22.5767 192.905Z" fill="#7C5142"/>
<path d="M23.8689 144.163C20.4078 139.663 27.8606 132.003 33.5828 129.569C39.305 127.134 47.3692 129.246 53.4375 130.618C57.2562 131.495 61.121 132.845 64.9743 132.303C67.5579 131.787 70.0503 130.888 72.3693 129.638C74.6859 128.366 77.2376 127.581 79.8682 127.33C81.1857 127.23 82.5056 127.492 83.685 128.088C84.8644 128.684 85.8584 129.591 86.5595 130.711C87.7824 133.018 86.6864 136.479 84.1252 137.114C84.913 136.572 85.8205 136.229 86.7698 136.115C87.7192 136.001 88.682 136.119 89.5756 136.46C90.4692 136.8 91.2668 137.352 91.8999 138.069C92.5331 138.785 92.9828 139.645 93.2104 140.573C93.4381 141.502 93.4369 142.472 93.207 143.4C92.9771 144.328 92.5253 145.187 91.8904 145.902C91.2555 146.617 90.4566 147.167 89.5622 147.505C88.6678 147.843 87.7047 147.959 86.7556 147.843C88.3362 146.389 91.1511 148.27 91.1511 150.404C91.1511 152.538 89.3629 154.292 87.494 155.342C82.7178 158.018 76.834 157.88 71.5041 156.645C66.1741 155.411 61.121 153.184 55.8141 151.8C50.5072 150.415 41.6124 147.924 36.6516 150.242C33.006 151.938 30.814 156.749 28.5758 156.011C27.5168 155.571 26.5757 154.889 25.8282 154.02C25.0808 153.15 24.548 152.117 24.2726 151.004C23.7573 148.766 23.6092 146.459 23.8342 144.174" fill="#263238"/>
<path d="M24.5494 181.877C24.6981 188.213 25.4241 194.523 26.7183 200.728C28.0118 206.954 30.9657 212.714 35.2671 217.398C41.0354 223.317 48.6035 228.935 56.7946 230.331C65.7356 231.808 76.6724 229.939 83.9521 224.563C87.4131 222.013 89.9166 216.487 88.8437 212.311C90.309 211.619 91.563 210.549 92.4758 209.21C93.3885 207.871 93.9269 206.313 94.0352 204.696C94.2198 201.466 92.247 197.428 89.6974 197.001C91.6125 196.678 92.1662 193.633 91.4394 191.914C90.7126 190.195 88.1861 189.676 86.271 190.045C84.3782 190.54 82.6176 191.446 81.1141 192.698C79.6193 193.952 77.9326 194.957 76.1187 195.675C69.935 197.682 63.6705 192.214 57.1753 192.479C51.3031 192.71 46.077 197.59 40.2509 196.771C38.6336 196.462 37.0993 195.817 35.7477 194.877C34.3961 193.937 33.2575 192.723 32.406 191.314C30.6062 188.557 31.3907 178.37 30.687 175.162" fill="#263238"/>
<path d="M50.3691 228.381C50.63 228.441 50.8821 228.534 51.119 228.658C51.6151 228.843 52.3419 229.096 53.2995 229.362C56.013 230.095 58.7981 230.532 61.6059 230.665C63.5288 230.779 65.4575 230.74 67.3743 230.55C69.5849 230.352 71.7692 229.927 73.8925 229.281C76.2369 228.581 78.4731 227.56 80.5377 226.247C82.7827 224.893 84.7421 223.113 86.3061 221.009C88.1641 218.531 88.991 215.431 88.6134 212.357V212.114L88.8211 212.022C90.2561 211.355 91.4985 210.335 92.4321 209.057C92.8849 208.454 93.2717 207.804 93.5858 207.119C93.8614 206.453 94.0326 205.749 94.0934 205.031C94.219 203.731 94.0333 202.42 93.5519 201.207C93.0704 199.993 92.3069 198.911 91.3246 198.051L91.1515 197.913L91.2899 197.74C91.8103 197.079 92.1498 196.295 92.2753 195.463C92.4007 194.632 92.3076 193.782 92.0052 192.998C91.7681 192.403 91.4097 191.864 90.9529 191.415C90.496 190.966 89.9508 190.617 89.3518 190.391C88.5871 190.085 87.7596 189.97 86.9406 190.056C86.3753 190.125 86.0984 190.229 86.0869 190.194C86.3532 190.068 86.6371 189.982 86.9291 189.941C88.025 189.763 89.1488 189.953 90.1254 190.481C91.102 191.009 91.8766 191.845 92.3283 192.86C92.6699 193.705 92.7857 194.625 92.6643 195.53C92.543 196.434 92.1886 197.291 91.6361 198.016V197.705C92.69 198.605 93.514 199.743 94.0397 201.025C94.5654 202.307 94.7776 203.696 94.6587 205.077C94.5997 205.87 94.4167 206.648 94.1164 207.384C93.7819 208.107 93.3761 208.795 92.9051 209.438C91.923 210.808 90.6036 211.9 89.0749 212.61L89.2479 212.264C89.711 215.495 88.882 218.778 86.9406 221.401C85.3304 223.567 83.312 225.398 80.9992 226.789C78.8929 228.129 76.6043 229.159 74.204 229.846C72.0433 230.496 69.8195 230.913 67.5704 231.092C65.6161 231.247 63.6526 231.247 61.6982 231.092C58.8685 230.915 56.0691 230.408 53.3572 229.581C52.6219 229.352 51.9014 229.079 51.1998 228.762C50.9101 228.665 50.6316 228.537 50.3691 228.381Z" fill="#455A64"/>
<path d="M-1.92719 197.935C-2.14804 197.875 -2.35547 197.773 -2.53863 197.635C-3.05845 197.246 -3.45824 196.718 -3.69231 196.113C-4.08217 195.138 -4.16666 194.068 -3.93459 193.044C-3.5706 191.688 -2.75707 190.496 -1.62724 189.664C-0.299891 188.663 1.18055 187.884 2.75673 187.356C4.52308 186.801 6.23094 186.075 7.85596 185.187C9.56595 184.105 10.9059 182.527 11.6977 180.665C12.5662 178.661 13.0289 176.504 13.059 174.32C13.1513 169.809 12.113 165.529 11.9977 161.549C11.8823 157.568 12.5745 153.854 14.3858 151.362C15.7423 149.364 17.802 147.951 20.1541 147.404C20.792 147.277 21.4453 147.246 22.0923 147.312C22.3181 147.338 22.5417 147.381 22.7614 147.439C21.9067 147.398 21.0502 147.464 20.2118 147.635C17.9447 148.234 15.9775 149.647 14.6857 151.604C13.0014 154.027 12.2976 157.626 12.5053 161.525C12.7129 165.425 13.6589 169.705 13.6589 174.343C13.6109 176.61 13.1129 178.845 12.1938 180.919C11.3457 182.884 9.91649 184.543 8.09823 185.672C6.42875 186.576 4.66948 187.302 2.84902 187.841C1.31772 188.325 -0.126974 189.049 -1.43111 189.987C-2.50239 190.745 -3.28681 191.842 -3.6577 193.102C-3.90912 194.061 -3.86489 195.075 -3.53079 196.009C-3.2267 196.812 -2.6621 197.491 -1.92719 197.935Z" fill="#455A64"/>
<path d="M84.5637 136.918C84.7274 136.818 84.9015 136.737 85.0828 136.675C85.3021 136.577 85.5299 136.5 85.7635 136.445C86.0766 136.352 86.3969 136.287 86.7211 136.249C87.7977 136.131 88.8868 136.26 89.9062 136.626C90.9255 136.992 91.8483 137.585 92.6048 138.36C93.3613 139.374 93.9089 140.529 94.2159 141.757C94.5228 142.985 94.583 144.261 94.393 145.513C94.1666 147.064 93.6313 148.555 92.8189 149.897C92.0065 151.238 90.9333 152.403 89.6629 153.323C86.7377 155.453 83.2421 156.658 79.626 156.784C75.7058 156.938 71.7841 156.519 67.9854 155.538C61.9511 154.057 56.2256 151.522 51.0725 148.051C48.8697 146.536 46.5558 145.19 44.1505 144.024C42.0437 143.049 39.7755 142.471 37.4592 142.317C34.0851 142.084 30.707 142.711 27.6414 144.14C25.4841 145.155 24.4573 146.032 24.4111 145.962C25.3586 145.147 26.4099 144.46 27.5376 143.92C30.6213 142.395 34.0476 141.696 37.4823 141.89C39.8735 142.013 42.2209 142.58 44.4043 143.563C46.8443 144.726 49.1929 146.072 51.4302 147.589C56.5467 150.992 62.2144 153.482 68.1815 154.95C71.9217 155.931 75.7842 156.366 79.649 156.242C83.1549 156.119 86.5464 154.963 89.3976 152.919C90.6214 152.044 91.6595 150.934 92.4516 149.655C93.2438 148.376 93.7742 146.952 94.0123 145.466C94.2156 144.264 94.1785 143.033 93.9033 141.845C93.628 140.657 93.12 139.535 92.4087 138.544C91.693 137.794 90.8201 137.212 89.8527 136.839C88.8853 136.466 87.8474 136.311 86.8133 136.387C86.0509 136.506 85.2988 136.683 84.5637 136.918Z" fill="#455A64"/>
<path d="M78.4493 126.754C78.4481 127.662 78.2637 128.561 77.9071 129.396C76.9067 131.691 75.169 133.587 72.9693 134.784C71.4841 135.648 69.8539 136.234 68.1585 136.514C66.2152 136.797 64.2411 136.797 62.2978 136.514C58.1792 135.995 53.9222 134.38 49.4459 132.984C44.9697 131.588 40.4588 130.757 36.4902 131.611C32.9736 132.379 29.7885 134.236 27.3877 136.918C25.7522 138.707 24.4999 140.811 23.7075 143.102C23.1768 144.74 23.0729 145.697 23.0037 145.686C22.9755 145.456 22.9755 145.224 23.0037 144.994C23.0961 144.33 23.2388 143.674 23.4306 143.032C24.1472 140.663 25.3716 138.478 27.0185 136.63C29.4429 133.829 32.7023 131.879 36.3171 131.069C40.4242 130.157 45.062 131 49.5613 132.407C54.0606 133.815 58.2831 135.43 62.3094 135.96C64.2029 136.237 66.1265 136.237 68.0201 135.96C69.665 135.712 71.2517 135.168 72.704 134.357C74.8541 133.229 76.5821 131.436 77.6302 129.246C77.9691 128.439 78.243 127.605 78.4493 126.754Z" fill="#455A64"/>
<path d="M165.77 53.7375C165.666 53.8644 159.183 48.5921 151.28 41.9585C143.377 35.3249 137.067 29.7872 137.182 29.7065C137.297 29.6257 143.77 34.8519 151.672 41.497C159.575 48.1422 165.885 53.6106 165.77 53.7375Z" fill="#263238"/>
<path d="M198.673 45.835C198.512 45.835 197.854 35.5904 197.22 22.9345C196.585 10.2787 196.193 0.0110582 196.354 -0.000478558C196.516 -0.0120153 197.173 10.2441 197.82 22.9115C198.466 35.5788 198.835 45.835 198.673 45.835Z" fill="#263238"/>
<path d="M177.722 38.5094C177.56 38.5094 175.542 32.7411 173.2 25.4383C170.858 18.1355 169.093 12.2403 169.254 12.1941C169.416 12.148 171.434 17.9625 173.776 25.2537C176.118 32.5449 177.872 38.4633 177.722 38.5094Z" fill="#263238"/>
<path d="M159.044 64.559C156.006 63.4903 153.036 62.2381 150.15 60.8095C147.178 59.557 144.289 58.1198 141.497 56.5063C144.535 57.5751 147.505 58.8272 150.392 60.2558C153.362 61.511 156.251 62.9481 159.044 64.559Z" fill="#263238"/>
<path d="M128.714 51.3036C128.714 51.4651 127.734 51.4882 126.568 51.3036C125.403 51.119 124.48 50.9113 124.503 50.7498C124.526 50.5883 125.484 50.5652 126.638 50.7498C127.791 50.9344 128.714 51.1421 128.714 51.3036Z" fill="#263238"/>
<path d="M170.004 4.74094C169.831 4.74094 169.704 3.80646 169.704 2.64125C169.704 1.47604 169.831 0.530029 170.004 0.530029C170.177 0.530029 170.304 1.47604 170.304 2.64125C170.304 3.80646 170.166 4.74094 170.004 4.74094Z" fill="#263238"/>
<path d="M239.467 21.0309C239.594 21.1463 234.264 27.2492 227.585 34.6673C220.905 42.0854 215.39 48.0153 215.24 47.8999C215.09 47.7846 220.443 41.6932 227.123 34.2635C233.803 26.8339 239.352 20.9271 239.467 21.0309Z" fill="#263238"/>
<path d="M247.946 12.6436C248.062 12.7589 247.45 13.5665 246.573 14.4433C245.697 15.3201 244.9 15.92 244.785 15.8046C244.67 15.6893 245.281 14.8817 246.158 14.0164C247.035 13.1512 247.831 12.482 247.946 12.6436Z" fill="#263238"/>
<path d="M268.505 42.178C268.01 42.5344 267.485 42.847 266.936 43.1125C265.909 43.6778 264.41 44.4738 262.541 45.4198C258.791 47.3118 253.542 49.7807 247.635 52.238C241.728 54.6953 236.272 56.6566 232.28 58.0064C230.296 58.664 228.68 59.1601 227.55 59.4946C226.978 59.7024 226.386 59.8531 225.785 59.9446C226.33 59.6746 226.898 59.4508 227.481 59.2754L232.095 57.6026C236.041 56.1836 241.452 54.1416 247.358 51.7189C253.265 49.2961 258.514 46.8619 262.356 45.0737L266.832 42.9509C267.37 42.6524 267.929 42.394 268.505 42.178Z" fill="#263238"/>
<path d="M251.638 70.5815C250.653 71.0206 249.624 71.3569 248.57 71.5852C246.654 72.1159 243.955 72.7389 240.978 73.2581C238.002 73.7772 235.21 74.0656 233.26 74.2041C232.193 74.34 231.113 74.3593 230.042 74.2618C231.089 74.0203 232.154 73.8584 233.226 73.7772C235.187 73.535 237.898 73.1658 240.875 72.6236C243.851 72.0813 246.539 71.5622 248.477 71.1468C249.511 70.8615 250.569 70.6723 251.638 70.5815Z" fill="#263238"/>
<path d="M266.971 67.7433C264.774 68.1433 262.523 68.1433 260.326 67.7433C262.523 67.3434 264.774 67.3434 266.971 67.7433Z" fill="#263238"/>
</g>
<defs>
<clipPath id="clip0_1_9288">
<rect width="393" height="340" fill="white"/>
</clipPath>
</defs>
</svg>
